<?xml version="1.0" encoding="UTF-8" standalone="no"?>
<!-- Created with Inkscape (http://www.inkscape.org/) -->

<svg
   width="93.050522mm"
   height="29.245173mm"
   viewBox="0 0 93.050521 29.245173"
   version="1.1"
   id="svg5"
   inkscape:version="1.1 (c68e22c387, 2021-05-23)"
   sodipodi:docname="barra4.svg"
   xmlns:inkscape="http://www.inkscape.org/namespaces/inkscape"
   xmlns:sodipodi="http://sodipodi.sourceforge.net/DTD/sodipodi-0.dtd"
   xmlns="http://www.w3.org/2000/svg"
   xmlns:svg="http://www.w3.org/2000/svg"
   xmlns:ns0="http://www.iki.fi/pav/software/textext/">
  <sodipodi:namedview
     id="namedview7"
     pagecolor="#505050"
     bordercolor="#eeeeee"
     borderopacity="1"
     inkscape:pageshadow="0"
     inkscape:pageopacity="0"
     inkscape:pagecheckerboard="0"
     inkscape:document-units="mm"
     showgrid="false"
     fit-margin-top="0"
     fit-margin-left="0"
     fit-margin-right="0"
     fit-margin-bottom="0"
     inkscape:zoom="0.92648709"
     inkscape:cx="196.98062"
     inkscape:cy="-4.8570563"
     inkscape:window-width="1366"
     inkscape:window-height="705"
     inkscape:window-x="-8"
     inkscape:window-y="-8"
     inkscape:window-maximized="1"
     inkscape:current-layer="layer1" />
  <defs
     id="defs2">
    <marker
       style="overflow:visible"
       id="marker26377"
       refX="0"
       refY="0"
       orient="auto"
       inkscape:stockid="Arrow1Send"
       inkscape:isstock="true">
      <path
         transform="matrix(-0.2,0,0,-0.2,-1.2,0)"
         style="fill:context-stroke;fill-rule:evenodd;stroke:context-stroke;stroke-width:1pt"
         d="M 0,0 5,-5 -12.5,0 5,5 Z"
         id="path26375" />
    </marker>
    <marker
       style="overflow:visible"
       id="Arrow1Send"
       refX="0"
       refY="0"
       orient="auto"
       inkscape:stockid="Arrow1Send"
       inkscape:isstock="true">
      <path
         transform="matrix(-0.2,0,0,-0.2,-1.2,0)"
         style="fill:context-stroke;fill-rule:evenodd;stroke:context-stroke;stroke-width:1pt"
         d="M 0,0 5,-5 -12.5,0 5,5 Z"
         id="path11943" />
    </marker>
  </defs>
  <g
     inkscape:label="Capa 1"
     inkscape:groupmode="layer"
     id="layer1"
     transform="translate(-83.425001,-191.66931)">
    <path
       style="fill:none;stroke:#000000;stroke-width:0.651923;stroke-linecap:butt;stroke-linejoin:miter;stroke-miterlimit:4;stroke-dasharray:none;stroke-opacity:1"
       d="m 95.73966,192.47884 v 27.30831"
       id="path857" />
    <rect
       style="fill:#ffffff;fill-opacity:1;stroke:#000000;stroke-width:0.4;stroke-miterlimit:4;stroke-dasharray:none"
       id="rect961"
       width="36.913681"
       height="2.0393682"
       x="95.942345"
       y="215.80342" />
    <rect
       style="fill:#ffffff;fill-opacity:1;stroke:#000000;stroke-width:0.403659;stroke-miterlimit:4;stroke-dasharray:none"
       id="rect961-4"
       width="37.65966"
       height="2.0357091"
       x="121.24531"
       y="196.53091" />
    <rect
       style="fill:#ffffff;fill-opacity:1;stroke:#000000;stroke-width:0.4;stroke-miterlimit:4;stroke-dasharray:none"
       id="rect961-5"
       width="22.275002"
       height="2.1418269"
       x="95.668266"
       y="199.11852" />
    <rect
       style="fill:#696969;fill-opacity:1;stroke:#000000;stroke-width:0.410904;stroke-miterlimit:4;stroke-dasharray:none"
       id="rect1213-4"
       width="3.1951916"
       height="17.469357"
       x="132.75218"
       y="202.97037" />
    <text
       xml:space="preserve"
       style="font-style:normal;font-weight:normal;font-size:3.85321px;line-height:1.25;font-family:sans-serif;fill:#000000;fill-opacity:1;stroke:none;stroke-width:0.0963304"
       x="105.6363"
       y="196.51418"
       id="text2185"><tspan
         sodipodi:role="line"
         id="tspan2183"
         style="stroke-width:0.0963304"
         x="105.6363"
         y="196.51418">e0</tspan></text>
    <text
       xml:space="preserve"
       style="font-style:normal;font-weight:normal;font-size:3.85321px;line-height:1.25;font-family:sans-serif;fill:#000000;fill-opacity:1;stroke:none;stroke-width:0.0963304"
       x="138.07913"
       y="194.48019"
       id="text2185-7"><tspan
         sodipodi:role="line"
         id="tspan2183-8"
         style="stroke-width:0.0963304"
         x="138.07913"
         y="194.48019">e1</tspan></text>
    <text
       xml:space="preserve"
       style="font-style:normal;font-weight:normal;font-size:3.85321px;line-height:1.25;font-family:sans-serif;fill:#000000;fill-opacity:1;stroke:none;stroke-width:0.0963304"
       x="106.25175"
       y="213.847"
       id="text2185-7-5"><tspan
         sodipodi:role="line"
         id="tspan2183-8-5"
         style="stroke-width:0.0963304"
         x="106.25175"
         y="213.847">e2</tspan></text>
    <text
       xml:space="preserve"
       style="font-style:normal;font-weight:normal;font-size:3.85321px;line-height:1.25;font-family:sans-serif;fill:#000000;fill-opacity:1;stroke:none;stroke-width:0.0963304"
       x="91.325127"
       y="209.46788"
       id="text2185-7-0"><tspan
         sodipodi:role="line"
         id="tspan2183-8-6"
         style="stroke-width:0.0963304"
         x="91.325127"
         y="209.46788">0</tspan></text>
    <rect
       style="fill:#696969;fill-opacity:1;stroke:#000000;stroke-width:0.4121;stroke-miterlimit:4;stroke-dasharray:none"
       id="rect1213-3"
       width="3.1560922"
       height="17.788816"
       x="117.91158"
       y="193.02715" />
    <path
       style="fill:none;stroke:#000000;stroke-width:0.651923;stroke-linecap:butt;stroke-linejoin:miter;stroke-miterlimit:4;stroke-dasharray:none;stroke-opacity:1"
       d="m 158.93151,193.60617 v 27.30831"
       id="path857-4" />
    <rect
       style="fill:#ffffff;fill-opacity:1;stroke:#000000;stroke-width:0.4;stroke-miterlimit:4;stroke-dasharray:none"
       id="rect961-5-0"
       width="11.52833"
       height="2.2470787"
       x="121.13203"
       y="206.71301" />
    <rect
       style="fill:#ffffff;fill-opacity:1;stroke:#000000;stroke-width:0.4;stroke-miterlimit:4;stroke-dasharray:none"
       id="rect961-5-0-3"
       width="22.383287"
       height="2.1073253"
       x="136.25494"
       y="206.70447" />
    <text
       xml:space="preserve"
       style="font-style:normal;font-weight:normal;font-size:3.85321px;line-height:1.25;font-family:sans-serif;fill:#000000;fill-opacity:1;stroke:none;stroke-width:0.0963304"
       x="125.0377"
       y="205.55817"
       id="text2185-7-5-8"><tspan
         sodipodi:role="line"
         id="tspan2183-8-5-5"
         style="stroke-width:0.0963304"
         x="125.0377"
         y="205.55817">e3</tspan></text>
    <text
       xml:space="preserve"
       style="font-style:normal;font-weight:normal;font-size:3.85321px;line-height:1.25;font-family:sans-serif;fill:#000000;fill-opacity:1;stroke:none;stroke-width:0.0963304"
       x="150.54521"
       y="205.41069"
       id="text2185-7-5-8-7"><tspan
         sodipodi:role="line"
         id="tspan2183-8-5-5-4"
         style="stroke-width:0.0963304"
         x="150.54521"
         y="205.41069">e4</tspan></text>
    <circle
       style="fill:#696969;fill-opacity:1;stroke:#ffffff;stroke-width:0.4;stroke-miterlimit:4;stroke-dasharray:none;stroke-opacity:1"
       id="path20986"
       cx="95.659302"
       cy="207.96275"
       r="0.68152517" />
    <text
       xml:space="preserve"
       style="font-style:normal;font-weight:normal;font-size:3.85321px;line-height:1.25;font-family:sans-serif;fill:#000000;fill-opacity:1;stroke:none;stroke-width:0.0963304"
       x="160.03152"
       y="200.20416"
       id="text2185-7-0-9"><tspan
         sodipodi:role="line"
         id="tspan2183-8-6-2"
         style="stroke-width:0.0963304"
         x="160.03152"
         y="200.20416">1</tspan></text>
    <circle
       style="fill:#696969;fill-opacity:1;stroke:#ffffff;stroke-width:0.4;stroke-miterlimit:4;stroke-dasharray:none;stroke-opacity:1"
       id="path20986-3"
       cx="158.91348"
       cy="202.46005"
       r="0.68152517" />
    <text
       xml:space="preserve"
       style="font-style:normal;font-weight:normal;font-size:3.85321px;line-height:1.25;font-family:sans-serif;fill:#000000;fill-opacity:1;stroke:none;stroke-width:0.0963304"
       x="136.6555"
       y="212.98317"
       id="text2185-7-0-9-5"><tspan
         sodipodi:role="line"
         id="tspan2183-8-6-2-7"
         style="stroke-width:0.0963304"
         x="136.6555"
         y="212.98317">2</tspan></text>
    <circle
       style="fill:#696969;fill-opacity:1;stroke:#ffffff;stroke-width:0.4;stroke-miterlimit:4;stroke-dasharray:none;stroke-opacity:1"
       id="path20986-3-8"
       cx="134.37634"
       cy="211.67998"
       r="0.68152517" />
    <text
       xml:space="preserve"
       style="font-style:normal;font-weight:normal;font-size:3.85321px;line-height:1.25;font-family:sans-serif;fill:#000000;fill-opacity:1;stroke:none;stroke-width:0.0963304"
       x="114.75963"
       y="205.20686"
       id="text2185-7-0-9-5-1"><tspan
         sodipodi:role="line"
         id="tspan2183-8-6-2-7-7"
         style="stroke-width:0.0963304"
         x="114.75963"
         y="205.20686">3</tspan></text>
    <circle
       style="fill:#696969;fill-opacity:1;stroke:#ffffff;stroke-width:0.4;stroke-miterlimit:4;stroke-dasharray:none;stroke-opacity:1"
       id="path20986-3-8-7"
       cx="119.6491"
       cy="202.59111"
       r="0.68152517" />
    <path
       style="fill:none;stroke:#000000;stroke-width:0.665;stroke-linecap:butt;stroke-linejoin:miter;stroke-miterlimit:4;stroke-dasharray:none;stroke-opacity:1;marker-end:url(#marker26377)"
       d="m 159.86545,202.4644 h 5.80559"
       id="path26293" />
    <g
       transform="matrix(0.45005833,0,0,0.45005833,161.50709,204.9428)"
       ns0:version="1.4.0"
       ns0:texconverter="pdflatex"
       ns0:pdfconverter="inkscape"
       ns0:text="$u_1 = U_1$"
       ns0:preamble="C:\Users\pablo\AppData\Roaming\inkscape\extensions\textext\default_packages.tex"
       ns0:scale="20.0"
       ns0:alignment="middle center"
       ns0:inkscapeversion="1.1"
       ns0:jacobian_sqrt="7.05556"
       id="g26523">
      <defs
         id="id-79a1793d-6654-4cda-ac1a-c764faeea26d">
        <g
           id="id-740da7ed-2fdd-4129-a666-1c0a244927e5">
          <symbol
             overflow="visible"
             id="id-52523b81-8f31-4f7e-916a-916442deb7fa">
            <path
               style="stroke:none;stroke-width:0"
               d=""
               id="id-54251aae-9a88-4fa4-b2d1-0c58af4e5bdf" />
          </symbol>
          <symbol
             overflow="visible"
             id="id-a8841cc5-66f3-4b86-b135-945c2a6571e4">
            <path
               style="stroke:none;stroke-width:0"
               d="M 3.484375,-0.5625 C 3.59375,-0.15625 3.953125,0.109375 4.375,0.109375 4.71875,0.109375 4.953125,-0.125 5.109375,-0.4375 5.28125,-0.796875 5.40625,-1.40625 5.40625,-1.421875 c 0,-0.109375 -0.078125,-0.109375 -0.109375,-0.109375 -0.109375,0 -0.109375,0.046875 -0.140625,0.1875 -0.140625,0.5625 -0.328125,1.234375 -0.75,1.234375 -0.203125,0 -0.3125,-0.125 -0.3125,-0.453125 0,-0.21875 0.125,-0.6875 0.203125,-1.046875 L 4.578125,-2.6875 C 4.609375,-2.828125 4.703125,-3.203125 4.75,-3.359375 4.796875,-3.59375 4.890625,-3.96875 4.890625,-4.03125 c 0,-0.171875 -0.140625,-0.265625 -0.28125,-0.265625 -0.046875,0 -0.3125,0.015625 -0.390625,0.34375 -0.1875,0.734375 -0.625,2.484375 -0.75,3 -0.015625,0.046875 -0.40625,0.84375 -1.140625,0.84375 -0.515625,0 -0.609375,-0.453125 -0.609375,-0.8125 0,-0.5625 0.28125,-1.34375 0.53125,-2.03125 0.125,-0.3125 0.171875,-0.453125 0.171875,-0.640625 0,-0.4375 -0.3125,-0.8125 -0.8125,-0.8125 -0.953125,0 -1.3125,1.453125 -1.3125,1.53125 0,0.109375 0.09375,0.109375 0.109375,0.109375 0.109375,0 0.109375,-0.03125 0.15625,-0.1875 0.25,-0.859375 0.640625,-1.234375 1.015625,-1.234375 0.09375,0 0.25,0.015625 0.25,0.328125 0,0.234375 -0.109375,0.53125 -0.171875,0.671875 -0.375,1 -0.578125,1.609375 -0.578125,2.09375 0,0.953125 0.6875,1.203125 1.21875,1.203125 0.65625,0 1.015625,-0.453125 1.1875,-0.671875 z m 0,0"
               id="id-2f0c3a54-aa47-4076-a2c4-c25f7f0ff4f2" />
          </symbol>
          <symbol
             overflow="visible"
             id="id-77bd90fb-decd-4128-9ae5-88f9abffecec">
            <path
               style="stroke:none;stroke-width:0"
               d="M 6.328125,-5.765625 C 6.4375,-6.171875 6.609375,-6.46875 7.40625,-6.5 c 0.046875,0 0.171875,-0.015625 0.171875,-0.203125 0,0 0,-0.109375 -0.125,-0.109375 -0.328125,0 -0.6875,0.03125 -1.015625,0.03125 -0.34375,0 -0.71875,-0.03125 -1.046875,-0.03125 -0.0625,0 -0.171875,0 -0.171875,0.203125 C 5.21875,-6.5 5.3125,-6.5 5.390625,-6.5 c 0.578125,0.015625 0.6875,0.21875 0.6875,0.4375 0,0.03125 -0.03125,0.1875 -0.03125,0.203125 l -0.90625,3.5625 C 4.8125,-0.953125 3.65625,-0.09375 2.65625,-0.09375 c -0.671875,0 -1.203125,-0.4375 -1.203125,-1.296875 0,-0.015625 0,-0.328125 0.109375,-0.765625 L 2.515625,-6.046875 C 2.609375,-6.40625 2.625,-6.5 3.359375,-6.5 c 0.265625,0 0.34375,0 0.34375,-0.203125 0,-0.109375 -0.109375,-0.109375 -0.140625,-0.109375 -0.28125,0 -1,0.03125 -1.28125,0.03125 -0.28125,0 -1,-0.03125 -1.28125,-0.03125 -0.078125,0 -0.1875,0 -0.1875,0.203125 C 0.8125,-6.5 0.890625,-6.5 1.09375,-6.5 c 0.015625,0 0.203125,0 0.375,0.015625 0.171875,0.03125 0.265625,0.03125 0.265625,0.171875 0,0.046875 -0.109375,0.46875 -0.171875,0.703125 l -0.21875,0.875 C 1.25,-4.34375 0.78125,-2.46875 0.734375,-2.265625 0.671875,-2 0.671875,-1.84375 0.671875,-1.6875 c 0,1.203125 0.90625,1.90625 1.953125,1.90625 1.25,0 2.484375,-1.125 2.8125,-2.4375 z m 0,0"
               id="id-19778ef3-8ae4-44ea-8208-40f107079615" />
          </symbol>
          <symbol
             overflow="visible"
             id="id-33448104-29ea-4155-99ba-bd9c152298df">
            <path
               style="stroke:none;stroke-width:0"
               d=""
               id="id-51646e95-b4a0-422d-8ec4-c9727660e321" />
          </symbol>
          <symbol
             overflow="visible"
             id="id-c5690a75-f709-4532-8e1d-a24cbbcc6244">
            <path
               style="stroke:none;stroke-width:0"
               d="m 2.328125,-4.4375 c 0,-0.1875 0,-0.1875 -0.203125,-0.1875 -0.453125,0.4375 -1.078125,0.4375 -1.359375,0.4375 v 0.25 c 0.15625,0 0.625,0 1,-0.1875 v 3.546875 c 0,0.234375 0,0.328125 -0.6875,0.328125 H 0.8125 V 0 c 0.125,0 0.984375,-0.03125 1.234375,-0.03125 0.21875,0 1.09375,0.03125 1.25,0.03125 V -0.25 H 3.03125 c -0.703125,0 -0.703125,-0.09375 -0.703125,-0.328125 z m 0,0"
               id="id-aa21a67a-d3f9-4e61-a901-9ab5d612486e" />
          </symbol>
          <symbol
             overflow="visible"
             id="id-4c84b4f7-3514-49df-ba70-5f7b17c6d1ee">
            <path
               style="stroke:none;stroke-width:0"
               d=""
               id="id-8deb45e7-fbc8-482a-9858-b9706319f390" />
          </symbol>
          <symbol
             overflow="visible"
             id="id-b6742a83-ef78-47ad-b44f-7b8c0e18cdd5">
            <path
               style="stroke:none;stroke-width:0"
               d="m 6.84375,-3.265625 c 0.15625,0 0.34375,0 0.34375,-0.1875 C 7.1875,-3.65625 7,-3.65625 6.859375,-3.65625 h -5.96875 c -0.140625,0 -0.328125,0 -0.328125,0.203125 0,0.1875 0.1875,0.1875 0.328125,0.1875 z m 0.015625,1.9375 c 0.140625,0 0.328125,0 0.328125,-0.203125 0,-0.1875 -0.1875,-0.1875 -0.34375,-0.1875 H 0.890625 c -0.140625,0 -0.328125,0 -0.328125,0.1875 0,0.203125 0.1875,0.203125 0.328125,0.203125 z m 0,0"
               id="id-0d8fcf5c-0280-4185-8c84-dce1f6849f51" />
          </symbol>
        </g>
      </defs>
      <g
         id="id-37851d79-efbf-40ee-928d-90efef43580e"
         transform="translate(-149.009,-127.953)">
        <g
           style="fill:#000000"
           id="id-f8dc3065-9e3c-48ca-90d5-e0e3ebb3b91e">
          <g
             id="id-4470f5fc-aaee-474c-a9a2-41b9f5a95005"
             transform="translate(148.712,134.765)">
            <path
               style="color:#000000;-inkscape-stroke:none"
               d="M 3.484375,-0.5625 C 3.59375,-0.15625 3.953125,0.109375 4.375,0.109375 4.71875,0.109375 4.953125,-0.125 5.109375,-0.4375 5.28125,-0.796875 5.40625,-1.40625 5.40625,-1.421875 c 0,-0.109375 -0.078125,-0.109375 -0.109375,-0.109375 -0.109375,0 -0.109375,0.046875 -0.140625,0.1875 -0.140625,0.5625 -0.328125,1.234375 -0.75,1.234375 -0.203125,0 -0.3125,-0.125 -0.3125,-0.453125 0,-0.21875 0.125,-0.6875 0.203125,-1.046875 L 4.578125,-2.6875 C 4.609375,-2.828125 4.703125,-3.203125 4.75,-3.359375 4.796875,-3.59375 4.890625,-3.96875 4.890625,-4.03125 c 0,-0.171875 -0.140625,-0.265625 -0.28125,-0.265625 -0.046875,0 -0.3125,0.015625 -0.390625,0.34375 -0.1875,0.734375 -0.625,2.484375 -0.75,3 -0.015625,0.046875 -0.40625,0.84375 -1.140625,0.84375 -0.515625,0 -0.609375,-0.453125 -0.609375,-0.8125 0,-0.5625 0.28125,-1.34375 0.53125,-2.03125 0.125,-0.3125 0.171875,-0.453125 0.171875,-0.640625 0,-0.4375 -0.3125,-0.8125 -0.8125,-0.8125 -0.953125,0 -1.3125,1.453125 -1.3125,1.53125 0,0.109375 0.09375,0.109375 0.109375,0.109375 0.109375,0 0.109375,-0.03125 0.15625,-0.1875 0.25,-0.859375 0.640625,-1.234375 1.015625,-1.234375 0.09375,0 0.25,0.015625 0.25,0.328125 0,0.234375 -0.109375,0.53125 -0.171875,0.671875 -0.375,1 -0.578125,1.609375 -0.578125,2.09375 0,0.953125 0.6875,1.203125 1.21875,1.203125 0.65625,0 1.015625,-0.453125 1.1875,-0.671875 z m 0,0"
               id="id-c1fa1e25-284a-48cd-a3d2-f7c7e2a9a61c" />
          </g>
        </g>
        <g
           style="fill:#000000"
           id="id-165ed34f-a428-4a83-9fd7-a0b0202ab39d">
          <g
             id="id-961b505f-06dc-43d6-862a-5b95db2ea210"
             transform="translate(154.415,136.259)">
            <path
               style="color:#000000;-inkscape-stroke:none"
               d="m 2.328125,-4.4375 c 0,-0.1875 0,-0.1875 -0.203125,-0.1875 -0.453125,0.4375 -1.078125,0.4375 -1.359375,0.4375 v 0.25 c 0.15625,0 0.625,0 1,-0.1875 v 3.546875 c 0,0.234375 0,0.328125 -0.6875,0.328125 H 0.8125 V 0 c 0.125,0 0.984375,-0.03125 1.234375,-0.03125 0.21875,0 1.09375,0.03125 1.25,0.03125 V -0.25 H 3.03125 c -0.703125,0 -0.703125,-0.09375 -0.703125,-0.328125 z m 0,0"
               id="id-637352ba-9af2-4cce-8768-04af4cc26988" />
          </g>
        </g>
        <g
           style="fill:#000000"
           id="id-5aeff9de-2eb7-4933-a827-da1f16165e46">
          <g
             id="id-435c3d29-9b1f-47c6-a749-d896de4cbe10"
             transform="translate(161.652,134.765)">
            <path
               style="color:#000000;-inkscape-stroke:none"
               d="m 6.84375,-3.265625 c 0.15625,0 0.34375,0 0.34375,-0.1875 C 7.1875,-3.65625 7,-3.65625 6.859375,-3.65625 h -5.96875 c -0.140625,0 -0.328125,0 -0.328125,0.203125 0,0.1875 0.1875,0.1875 0.328125,0.1875 z m 0.015625,1.9375 c 0.140625,0 0.328125,0 0.328125,-0.203125 0,-0.1875 -0.1875,-0.1875 -0.34375,-0.1875 H 0.890625 c -0.140625,0 -0.328125,0 -0.328125,0.1875 0,0.203125 0.1875,0.203125 0.328125,0.203125 z m 0,0"
               id="id-8d6b72e8-16d3-4a76-b704-f5df03d83afd" />
          </g>
        </g>
        <g
           style="fill:#000000"
           id="id-6321adf0-7d8f-4399-98be-aaae949eac54">
          <g
             id="id-accfaf88-b607-4329-81e6-42be4ac8f073"
             transform="translate(172.168,134.765)">
            <path
               style="color:#000000;-inkscape-stroke:none"
               d="M 6.328125,-5.765625 C 6.4375,-6.171875 6.609375,-6.46875 7.40625,-6.5 c 0.046875,0 0.171875,-0.015625 0.171875,-0.203125 0,0 0,-0.109375 -0.125,-0.109375 -0.328125,0 -0.6875,0.03125 -1.015625,0.03125 -0.34375,0 -0.71875,-0.03125 -1.046875,-0.03125 -0.0625,0 -0.171875,0 -0.171875,0.203125 C 5.21875,-6.5 5.3125,-6.5 5.390625,-6.5 c 0.578125,0.015625 0.6875,0.21875 0.6875,0.4375 0,0.03125 -0.03125,0.1875 -0.03125,0.203125 l -0.90625,3.5625 C 4.8125,-0.953125 3.65625,-0.09375 2.65625,-0.09375 c -0.671875,0 -1.203125,-0.4375 -1.203125,-1.296875 0,-0.015625 0,-0.328125 0.109375,-0.765625 L 2.515625,-6.046875 C 2.609375,-6.40625 2.625,-6.5 3.359375,-6.5 c 0.265625,0 0.34375,0 0.34375,-0.203125 0,-0.109375 -0.109375,-0.109375 -0.140625,-0.109375 -0.28125,0 -1,0.03125 -1.28125,0.03125 -0.28125,0 -1,-0.03125 -1.28125,-0.03125 -0.078125,0 -0.1875,0 -0.1875,0.203125 C 0.8125,-6.5 0.890625,-6.5 1.09375,-6.5 c 0.015625,0 0.203125,0 0.375,0.015625 0.171875,0.03125 0.265625,0.03125 0.265625,0.171875 0,0.046875 -0.109375,0.46875 -0.171875,0.703125 l -0.21875,0.875 C 1.25,-4.34375 0.78125,-2.46875 0.734375,-2.265625 0.671875,-2 0.671875,-1.84375 0.671875,-1.6875 c 0,1.203125 0.90625,1.90625 1.953125,1.90625 1.25,0 2.484375,-1.125 2.8125,-2.4375 z m 0,0"
               id="id-a2cd70d7-fbfb-476c-b158-a537aaeec6f7" />
          </g>
        </g>
        <g
           style="fill:#000000"
           id="id-43049a41-3596-4174-ad8d-6bdbf1d9788a">
          <g
             id="id-1d0222ef-1481-4f56-af95-b55703617c86"
             transform="translate(178.971,136.259)">
            <path
               style="color:#000000;-inkscape-stroke:none"
               d="m 2.328125,-4.4375 c 0,-0.1875 0,-0.1875 -0.203125,-0.1875 -0.453125,0.4375 -1.078125,0.4375 -1.359375,0.4375 v 0.25 c 0.15625,0 0.625,0 1,-0.1875 v 3.546875 c 0,0.234375 0,0.328125 -0.6875,0.328125 H 0.8125 V 0 c 0.125,0 0.984375,-0.03125 1.234375,-0.03125 0.21875,0 1.09375,0.03125 1.25,0.03125 V -0.25 H 3.03125 c -0.703125,0 -0.703125,-0.09375 -0.703125,-0.328125 z m 0,0"
               id="id-15059fd0-9c2d-4c37-becc-c9f6475a5479" />
          </g>
        </g>
      </g>
    </g>
    <g
       transform="matrix(0.37989519,0,0,0.37989519,83.425048,211.07347)"
       ns0:version="1.4.0"
       ns0:texconverter="pdflatex"
       ns0:pdfconverter="inkscape"
       ns0:text="$u_0  = 0$"
       ns0:preamble="C:\Users\pablo\AppData\Roaming\inkscape\extensions\textext\default_packages.tex"
       ns0:scale="20.0"
       ns0:alignment="middle center"
       ns0:inkscapeversion="1.1"
       ns0:jacobian_sqrt="7.05556"
       id="g26773">
      <defs
         id="id-e7808dec-7927-40ab-8e90-b8dc3e950a34">
        <g
           id="id-34b82d05-4da3-44ae-bf80-25ab691bcd25">
          <symbol
             overflow="visible"
             id="id-f7cfb351-02c4-4bee-bfe6-2955436b41d0">
            <path
               style="stroke:none;stroke-width:0"
               d=""
               id="id-8ce915ad-23b1-4168-9787-b199f2b49a67" />
          </symbol>
          <symbol
             overflow="visible"
             id="id-cef840e5-19a3-495b-aa26-85cc04fe6264">
            <path
               style="stroke:none;stroke-width:0"
               d="M 3.484375,-0.5625 C 3.59375,-0.15625 3.953125,0.109375 4.375,0.109375 4.71875,0.109375 4.953125,-0.125 5.109375,-0.4375 5.28125,-0.796875 5.40625,-1.40625 5.40625,-1.421875 c 0,-0.109375 -0.078125,-0.109375 -0.109375,-0.109375 -0.109375,0 -0.109375,0.046875 -0.140625,0.1875 -0.140625,0.5625 -0.328125,1.234375 -0.75,1.234375 -0.203125,0 -0.3125,-0.125 -0.3125,-0.453125 0,-0.21875 0.125,-0.6875 0.203125,-1.046875 L 4.578125,-2.6875 C 4.609375,-2.828125 4.703125,-3.203125 4.75,-3.359375 4.796875,-3.59375 4.890625,-3.96875 4.890625,-4.03125 c 0,-0.171875 -0.140625,-0.265625 -0.28125,-0.265625 -0.046875,0 -0.3125,0.015625 -0.390625,0.34375 -0.1875,0.734375 -0.625,2.484375 -0.75,3 -0.015625,0.046875 -0.40625,0.84375 -1.140625,0.84375 -0.515625,0 -0.609375,-0.453125 -0.609375,-0.8125 0,-0.5625 0.28125,-1.34375 0.53125,-2.03125 0.125,-0.3125 0.171875,-0.453125 0.171875,-0.640625 0,-0.4375 -0.3125,-0.8125 -0.8125,-0.8125 -0.953125,0 -1.3125,1.453125 -1.3125,1.53125 0,0.109375 0.09375,0.109375 0.109375,0.109375 0.109375,0 0.109375,-0.03125 0.15625,-0.1875 0.25,-0.859375 0.640625,-1.234375 1.015625,-1.234375 0.09375,0 0.25,0.015625 0.25,0.328125 0,0.234375 -0.109375,0.53125 -0.171875,0.671875 -0.375,1 -0.578125,1.609375 -0.578125,2.09375 0,0.953125 0.6875,1.203125 1.21875,1.203125 0.65625,0 1.015625,-0.453125 1.1875,-0.671875 z m 0,0"
               id="id-6df5f7b5-0560-4c89-b352-d12d4076fd4a" />
          </symbol>
          <symbol
             overflow="visible"
             id="id-ddb497c8-252d-4153-9074-b669ee8d7b1d">
            <path
               style="stroke:none;stroke-width:0"
               d=""
               id="id-e8f0406e-727a-4ecf-9680-f0159dbf3a42" />
          </symbol>
          <symbol
             overflow="visible"
             id="id-c7fefd2f-f2cd-4f74-bcac-5094a2651aad">
            <path
               style="stroke:none;stroke-width:0"
               d="M 3.59375,-2.21875 C 3.59375,-2.984375 3.5,-3.546875 3.1875,-4.03125 2.96875,-4.34375 2.53125,-4.625 1.984375,-4.625 c -1.625,0 -1.625,1.90625 -1.625,2.40625 0,0.5 0,2.359375 1.625,2.359375 1.609375,0 1.609375,-1.859375 1.609375,-2.359375 z M 1.984375,-0.0625 c -0.328125,0 -0.75,-0.1875 -0.890625,-0.75 C 1,-1.21875 1,-1.796875 1,-2.3125 1,-2.828125 1,-3.359375 1.09375,-3.734375 1.25,-4.28125 1.6875,-4.4375 1.984375,-4.4375 c 0.375,0 0.734375,0.234375 0.859375,0.640625 0.109375,0.375 0.125,0.875 0.125,1.484375 0,0.515625 0,1.03125 -0.09375,1.46875 -0.140625,0.640625 -0.609375,0.78125 -0.890625,0.78125 z m 0,0"
               id="id-8378c588-e434-4317-8503-1565bf0bf969" />
          </symbol>
          <symbol
             overflow="visible"
             id="id-dd3d6dec-c9c6-4c58-bd4a-88cf93101be9">
            <path
               style="stroke:none;stroke-width:0"
               d=""
               id="id-3d1fd89d-c7ba-405a-a756-698a653d2bd9" />
          </symbol>
          <symbol
             overflow="visible"
             id="id-0d84a8ec-7d84-4a44-ad21-fd3b049c94d0">
            <path
               style="stroke:none;stroke-width:0"
               d="m 6.84375,-3.265625 c 0.15625,0 0.34375,0 0.34375,-0.1875 C 7.1875,-3.65625 7,-3.65625 6.859375,-3.65625 h -5.96875 c -0.140625,0 -0.328125,0 -0.328125,0.203125 0,0.1875 0.1875,0.1875 0.328125,0.1875 z m 0.015625,1.9375 c 0.140625,0 0.328125,0 0.328125,-0.203125 0,-0.1875 -0.1875,-0.1875 -0.34375,-0.1875 H 0.890625 c -0.140625,0 -0.328125,0 -0.328125,0.1875 0,0.203125 0.1875,0.203125 0.328125,0.203125 z m 0,0"
               id="id-5ba73900-8934-4488-ae69-e57e9016e8a2" />
          </symbol>
          <symbol
             overflow="visible"
             id="id-28ca9779-e3a9-417f-9b90-06c40295cff3">
            <path
               style="stroke:none;stroke-width:0"
               d="m 4.578125,-3.1875 c 0,-0.796875 -0.046875,-1.59375 -0.390625,-2.328125 -0.453125,-0.96875 -1.28125,-1.125 -1.6875,-1.125 -0.609375,0 -1.328125,0.265625 -1.75,1.1875 -0.3125,0.6875 -0.359375,1.46875 -0.359375,2.265625 0,0.75 0.03125,1.640625 0.453125,2.40625 0.421875,0.796875 1.15625,1 1.640625,1 0.53125,0 1.296875,-0.203125 1.734375,-1.15625 0.3125,-0.6875 0.359375,-1.46875 0.359375,-2.25 z M 2.484375,0 C 2.09375,0 1.5,-0.25 1.328125,-1.203125 1.21875,-1.796875 1.21875,-2.71875 1.21875,-3.3125 c 0,-0.640625 0,-1.296875 0.078125,-1.828125 0.1875,-1.1875 0.9375,-1.28125 1.1875,-1.28125 0.328125,0 0.984375,0.1875 1.171875,1.171875 0.109375,0.5625 0.109375,1.3125 0.109375,1.9375 0,0.75 0,1.421875 -0.109375,2.0625 C 3.5,-0.296875 2.9375,0 2.484375,0 Z m 0,0"
               id="id-56f46233-1974-48a5-9540-626c7768c7e8" />
          </symbol>
        </g>
      </defs>
      <g
         id="id-8eafaf57-0526-4688-91b1-578c2f26ad33"
         transform="translate(-149.009,-128.124)">
        <g
           style="fill:#000000"
           id="id-2ce1569a-9f24-4f20-952a-562c17ee8b7e">
          <g
             id="id-85cd768f-b3a1-4c73-ade3-aef275057aab"
             transform="translate(148.712,134.765)">
            <path
               style="color:#000000;-inkscape-stroke:none"
               d="M 3.484375,-0.5625 C 3.59375,-0.15625 3.953125,0.109375 4.375,0.109375 4.71875,0.109375 4.953125,-0.125 5.109375,-0.4375 5.28125,-0.796875 5.40625,-1.40625 5.40625,-1.421875 c 0,-0.109375 -0.078125,-0.109375 -0.109375,-0.109375 -0.109375,0 -0.109375,0.046875 -0.140625,0.1875 -0.140625,0.5625 -0.328125,1.234375 -0.75,1.234375 -0.203125,0 -0.3125,-0.125 -0.3125,-0.453125 0,-0.21875 0.125,-0.6875 0.203125,-1.046875 L 4.578125,-2.6875 C 4.609375,-2.828125 4.703125,-3.203125 4.75,-3.359375 4.796875,-3.59375 4.890625,-3.96875 4.890625,-4.03125 c 0,-0.171875 -0.140625,-0.265625 -0.28125,-0.265625 -0.046875,0 -0.3125,0.015625 -0.390625,0.34375 -0.1875,0.734375 -0.625,2.484375 -0.75,3 -0.015625,0.046875 -0.40625,0.84375 -1.140625,0.84375 -0.515625,0 -0.609375,-0.453125 -0.609375,-0.8125 0,-0.5625 0.28125,-1.34375 0.53125,-2.03125 0.125,-0.3125 0.171875,-0.453125 0.171875,-0.640625 0,-0.4375 -0.3125,-0.8125 -0.8125,-0.8125 -0.953125,0 -1.3125,1.453125 -1.3125,1.53125 0,0.109375 0.09375,0.109375 0.109375,0.109375 0.109375,0 0.109375,-0.03125 0.15625,-0.1875 0.25,-0.859375 0.640625,-1.234375 1.015625,-1.234375 0.09375,0 0.25,0.015625 0.25,0.328125 0,0.234375 -0.109375,0.53125 -0.171875,0.671875 -0.375,1 -0.578125,1.609375 -0.578125,2.09375 0,0.953125 0.6875,1.203125 1.21875,1.203125 0.65625,0 1.015625,-0.453125 1.1875,-0.671875 z m 0,0"
               id="id-5002e2e6-55dc-4a6e-b011-22f180b5a4fc" />
          </g>
        </g>
        <g
           style="fill:#000000"
           id="id-63383bef-a06b-4cc4-8baf-23084ae0b5b7">
          <g
             id="id-7ad64c92-2254-44d9-9893-d04e159adf7c"
             transform="translate(154.415,136.259)">
            <path
               style="color:#000000;-inkscape-stroke:none"
               d="M 3.59375,-2.21875 C 3.59375,-2.984375 3.5,-3.546875 3.1875,-4.03125 2.96875,-4.34375 2.53125,-4.625 1.984375,-4.625 c -1.625,0 -1.625,1.90625 -1.625,2.40625 0,0.5 0,2.359375 1.625,2.359375 1.609375,0 1.609375,-1.859375 1.609375,-2.359375 z M 1.984375,-0.0625 c -0.328125,0 -0.75,-0.1875 -0.890625,-0.75 C 1,-1.21875 1,-1.796875 1,-2.3125 1,-2.828125 1,-3.359375 1.09375,-3.734375 1.25,-4.28125 1.6875,-4.4375 1.984375,-4.4375 c 0.375,0 0.734375,0.234375 0.859375,0.640625 0.109375,0.375 0.125,0.875 0.125,1.484375 0,0.515625 0,1.03125 -0.09375,1.46875 -0.140625,0.640625 -0.609375,0.78125 -0.890625,0.78125 z m 0,0"
               id="id-6440ba98-45d9-49dd-8e99-83b18c4ba504" />
          </g>
        </g>
        <g
           style="fill:#000000"
           id="id-2dfc424f-9f26-47d8-b815-c3788ad0a71d">
          <g
             id="id-d7d9065b-b91a-4ffe-a07f-69cf2c3c1313"
             transform="translate(161.652,134.765)">
            <path
               style="color:#000000;-inkscape-stroke:none"
               d="m 6.84375,-3.265625 c 0.15625,0 0.34375,0 0.34375,-0.1875 C 7.1875,-3.65625 7,-3.65625 6.859375,-3.65625 h -5.96875 c -0.140625,0 -0.328125,0 -0.328125,0.203125 0,0.1875 0.1875,0.1875 0.328125,0.1875 z m 0.015625,1.9375 c 0.140625,0 0.328125,0 0.328125,-0.203125 0,-0.1875 -0.1875,-0.1875 -0.34375,-0.1875 H 0.890625 c -0.140625,0 -0.328125,0 -0.328125,0.1875 0,0.203125 0.1875,0.203125 0.328125,0.203125 z m 0,0"
               id="id-b45ad6c6-7e2a-46ed-9788-f976c7fb71d6" />
          </g>
        </g>
        <g
           style="fill:#000000"
           id="id-a545b5e0-f3f3-4845-a73c-19bb1f3f9ebb">
          <g
             id="id-7659f550-60fb-49dd-b66b-2cbd66658862"
             transform="translate(172.171,134.765)">
            <path
               style="color:#000000;-inkscape-stroke:none"
               d="m 4.578125,-3.1875 c 0,-0.796875 -0.046875,-1.59375 -0.390625,-2.328125 -0.453125,-0.96875 -1.28125,-1.125 -1.6875,-1.125 -0.609375,0 -1.328125,0.265625 -1.75,1.1875 -0.3125,0.6875 -0.359375,1.46875 -0.359375,2.265625 0,0.75 0.03125,1.640625 0.453125,2.40625 0.421875,0.796875 1.15625,1 1.640625,1 0.53125,0 1.296875,-0.203125 1.734375,-1.15625 0.3125,-0.6875 0.359375,-1.46875 0.359375,-2.25 z M 2.484375,0 C 2.09375,0 1.5,-0.25 1.328125,-1.203125 1.21875,-1.796875 1.21875,-2.71875 1.21875,-3.3125 c 0,-0.640625 0,-1.296875 0.078125,-1.828125 0.1875,-1.1875 0.9375,-1.28125 1.1875,-1.28125 0.328125,0 0.984375,0.1875 1.171875,1.171875 0.109375,0.5625 0.109375,1.3125 0.109375,1.9375 0,0.75 0,1.421875 -0.109375,2.0625 C 3.5,-0.296875 2.9375,0 2.484375,0 Z m 0,0"
               id="id-993942dc-238c-41da-8e96-b15a9a427fef" />
          </g>
        </g>
      </g>
    </g>
  </g>
</svg>
